<svg height="512" viewBox="0 0 57 60" width="512" xmlns="http://www.w3.org/2000/svg"><g id="Page-1" fill="none" fill-rule="evenodd"><g id="049---Feather" fill-rule="nonzero"><path id="Shape" d="m44.318 15.866c-1.031021-4.5986073-.7953184-9.39076547.682-13.866 2.99 4.18 3.83 9.78 4.03 13.62v2.658l-5.01 5.959z" fill="#2fa8cc"/><path id="Shape" d="m49.05 27.88h.01c2.063892-.3217669 4.0668125-.9556878 5.94-1.88 0 0-4 9-11 12-2.9217391 1.2304615-5.9605753 2.1618798-9.07 2.78h-.03c-3.034584.6273379-6.1143292 1.0118881-9.21 1.15l18.388-13.56z" fill="#67b9cc"/><path id="Shape" d="m27.53 46.28h.02c2.43.45 5.32 1.02 8.45 1.72 0 0-6 4-18 3 0 0 2 3 10 3 0 0-10.68 3.56-18.6-1.91l10.319-7.768z" fill="#67b9cc"/><path id="Shape" d="m15.926 43.185c-.003479-2.721528.2861917-5.4355143.864-8.095v-.01c.8248039-3.4287821 1.8942083-6.7940641 3.2-10.07 0-.0055228.0044772-.01.01-.01l-.01.01c-12.35 7.41-12.515 18.78-12.175 22.36z" fill="#67b9cc"/><path id="Shape" d="m25.926 37.63c.48-3.33 2.674-14.06 10.074-20.63 0 0-2.73 5.46.49 13.77l-4.35 4.057z" fill="#67b9cc"/><path id="Shape" d="m26.259 37.593c.1-5.83.741-13.593.741-13.593-4.3165437 2.7335338-7.8377769 6.5548133-10.21 11.08v.01l-2.915 9.315z" fill="#2fa8cc"/><path id="Shape" d="m44.59 23.21v-.01c.9-5.18.29-8.75-.81-11.21 0 0 .01 0 0-.01-.8681083-2.22933327-2.5881015-4.02129264-4.78-4.98 2 3 1 7 0 13-.5536612 2.6802252-.1353706 5.4700108 1.18 7.87l2.657-1.308z" fill="#67b9cc"/><g fill="#2fa8cc"><path id="Shape" d="m43.05 30.7c2.1285329-.6378987 4.1505736-1.5882578 6-2.82h.01c4.6712601-3.1307464 7.609079-8.2663795 7.94-13.88-3.67 5.14-6.8 7.05-8.21 7.69z"/><path id="Shape" d="m25.833 41.333 9.1-.553c2.99-.15 6.53-.39 10.07-.78-2.0836673 1.9910932-4.4407495 3.6747233-7 5-3.4517551.6536967-6.9425165 1.0812733-10.45 1.28h-.02c-2.6622737.2169153-5.3421028.0110342-7.94-.61z"/><path id="Shape" d="m12 58c-.4299742-.000183-.8116982-.2752015-.948-.683-.613-1.827-2.8-3.522-4.489-4.419-.38724047-.2033424-.60526453-.6277893-.545-1.061.05466065-.3224372.26353164-.5977725.55931471-.7372928.29578306-.1395203.64109838-.1255937.92468529.0372928 1.058.563 4.446 2.564 5.446 5.549.1007249.3045547.0492323.6389432-.1384506.8990859-.1876828.2601427-.4887709.4144577-.8095494.4149141z"/><path id="Shape" d="m8 58c-.38082562.0020788-.72977408-.2123306-.9-.553-.35925581-.7259285-.78048505-1.4195014-1.259-2.073-.3122846-.4445229-.21255955-1.0570532.22460386-1.3795597s1.0518411-.2370092 1.38439614.1925597c.54996848.7458414 1.03507317 1.5373985 1.45 2.366.15534314.3108588.13816276.6800764-.04537629.9751664-.18353905.2950901-.50711676.4737357-.85462371.4718336z"/><path id="Shape" d="m6.344 49.731c-.2039838-.2107668-.32231693-.4898477-.332-.783-.093-2.678-.816-5.955-2.565-7.115-.4491666-.309565-.5673602-.9219935-.26564763-1.376472.30171258-.4544784.91199462-.583297 1.37164763-.289528 2.915 1.933 3.388 6.733 3.458 8.712l-1 .11z"/><path id="Shape" d="m4.879 49.91c-.49074745-.0007063-.90846233-.3574162-.986-.842-.17859845-1.2571352-.73682379-2.4297573-1.6-3.361-.37897221-.3923789-.37355237-1.0160848.01218142-1.4018186.3857338-.3857338 1.00943969-.3911536 1.40181858-.0121814 1.16840143 1.2240053 1.92380387 2.7834218 2.16 4.459.04265604.2622153-.02077978.5306272-.17630881.7460039-.15552903.2153768-.39036699.3600148-.65269119.4019961-.05262946.0077514-.10581408.0110963-.159.01z"/><path id="Shape" d="m3.461 51.16c-.32325957.0005851-.62686315-.1551281-.815-.418-.54551458-.7723085-1.26483926-1.4056568-2.1-1.849-.48893567-.2507784-.68392567-.8490836-.43664531-1.3397978.24728035-.4907141.84417777-.6899718 1.33664531-.4462022 1.12187968.5907091 2.08895918 1.4372034 2.823 2.471.21798393.3045735.24749483.7054241.07646519 1.038637s-.51392308.5429179-.88846519.543363z"/><path id="Shape" d="m48.815 18.593c-.4378659.00042-.8250808-.2840733-.9555417-.7020525-.1304609-.4179793.0261777-.8722218.3865417-1.1209475.991-.684 5.973-4.613 6.757-14.846.0271522-.35672969.2425549-.671876.5650679-.82672637.3225131-.15485036.7031391-.12587932.9985.076.2953609.20187933.4605843.54599668.4334321.90272637-.833 10.86-6.039 15.252-7.614 16.34-.1678331.1158417-.3670713.1776021-.571.177z"/></g><path id="Shape" d="m50.864 1.5c-.1666764-.33191073-.5035764-.54410301-.8749218-.55105859-.3713454-.00695559-.7159553.19247146-.8949444.51790761-.178989.32543615-.1628679.72326436.0418662 1.03315098.932 1.6 1.025 4.572.947 6.414v.014c0 .109-.01.21-.016.311-.147 2.117-1.655 14.236-17.067 23.761-18.676 11.542-27 13-32 20 .13676524 3.1164396 2.09637289 5.8598903 5 7 0 0-3-4 5-9s21-13 28-17c6.352-3.63 12.542-14.951 13.045-24.357.106-1.551.236-5.709-1.181-8.143z" fill="#547580"/></g></g></svg>